<svg width="83" height="86" viewBox="0 0 83 86" fill="none" xmlns="http://www.w3.org/2000/svg">
<path d="M41.5 0.685059C30.4975 0.695446 19.9494 4.19779 12.1694 10.4238C4.3895 16.6498 0.0130241 25.0911 4.41517e-05 33.896C-0.0131336 41.0914 2.92383 48.0916 8.3604 53.8226C8.3604 53.8226 9.49222 55.0152 9.67708 55.1873L41.5 85.2221L73.338 55.1722C73.504 55.0122 74.6396 53.8226 74.6396 53.8226L74.6434 53.8136C80.0772 48.085 83.0129 41.0881 83 33.896C82.987 25.0911 78.6105 16.6498 70.8306 10.4238C63.0506 4.19779 52.5025 0.695446 41.5 0.685059ZM41.5 45.9728C38.5153 45.9728 35.5976 45.2645 33.116 43.9375C30.6343 42.6105 28.7 40.7243 27.5578 38.5176C26.4156 36.3109 26.1168 33.8826 26.6991 31.54C27.2814 29.1973 28.7186 27.0455 30.8291 25.3565C32.9396 23.6675 35.6286 22.5174 38.5559 22.0514C41.4833 21.5854 44.5175 21.8245 47.275 22.7386C50.0325 23.6527 52.3894 25.2006 54.0476 27.1866C55.7058 29.1726 56.5909 31.5075 56.5909 33.896C56.5859 37.0978 54.9944 40.1672 52.1654 42.4312C49.3363 44.6951 45.5008 45.9688 41.5 45.9728Z" fill="#0FA958"/>
</svg>
