<svg width="85" height="85" viewBox="0 0 85 85" fill="none" xmlns="http://www.w3.org/2000/svg">
<path d="M77.8313 40.8706V13.8706C77.8313 8.92061 74.5132 4.87061 70.4578 4.87061H11.4699C7.41446 4.87061 4.13325 8.92061 4.13325 13.8706L4.09639 67.8706C4.09639 72.8206 7.41446 76.8706 11.4699 76.8706H52.0241V54.3706C52.0241 46.9006 56.9643 40.8706 63.0843 40.8706H77.8313ZM40.9639 45.3706L11.4699 22.8706V13.8706L40.9639 36.3706L70.4578 13.8706V22.8706L40.9639 45.3706Z" fill="#0FA958"/>
<path d="M73.3509 51.3132V65.4027C73.3509 69.2773 70.1634 72.4475 66.2676 72.4475C62.3717 72.4475 59.1842 69.2773 59.1842 65.4027V49.552C59.1842 48.5658 59.9634 47.7908 60.9551 47.7908C61.9467 47.7908 62.7259 48.5658 62.7259 49.552V65.4027H69.8092V49.552C69.8092 47.2166 68.8764 44.9767 67.2159 43.3253C65.5554 41.6739 63.3033 40.7461 60.9551 40.7461C58.6068 40.7461 56.3547 41.6739 54.6942 43.3253C53.0337 44.9767 52.1009 47.2166 52.1009 49.552V65.4027C52.1009 73.1872 58.4405 79.4922 66.2676 79.4922C74.0946 79.4922 80.4342 73.1872 80.4342 65.4027V51.3132H73.3509Z" fill="#0FA958"/>
</svg>
