<svg width="50" height="50" viewBox="0 0 50 50" fill="none" xmlns="http://www.w3.org/2000/svg">
<path fill-rule="evenodd" clip-rule="evenodd" d="M11.3937 5.14361C11.5389 4.9981 11.7113 4.88266 11.9011 4.80389C12.091 4.72512 12.2945 4.68457 12.5 4.68457C12.7055 4.68457 12.909 4.72512 13.0988 4.80389C13.2887 4.88266 13.4611 4.9981 13.6062 5.14361L32.3562 23.8936C32.5017 24.0388 32.6172 24.2112 32.696 24.401C32.7747 24.5908 32.8153 24.7943 32.8153 24.9999C32.8153 25.2054 32.7747 25.4089 32.696 25.5987C32.6172 25.7885 32.5017 25.961 32.3562 26.1061L13.6062 44.8561C13.3128 45.1495 12.9149 45.3143 12.5 45.3143C12.0851 45.3143 11.6871 45.1495 11.3937 44.8561C11.1003 44.5627 10.9355 44.1648 10.9355 43.7499C10.9355 43.3349 11.1003 42.937 11.3937 42.6436L29.0406 24.9999L11.3937 7.35611C11.2482 7.21097 11.1328 7.03855 11.054 6.84872C10.9752 6.65889 10.9347 6.45539 10.9347 6.24986C10.9347 6.04434 10.9752 5.84084 11.054 5.65101C11.1328 5.46118 11.2482 5.28876 11.3937 5.14361Z" fill="#1BA965"/>
<path fill-rule="evenodd" clip-rule="evenodd" d="M23.8937 5.14361C24.0389 4.9981 24.2113 4.88266 24.4011 4.80389C24.591 4.72512 24.7945 4.68457 25 4.68457C25.2055 4.68457 25.409 4.72512 25.5988 4.80389C25.7887 4.88266 25.9611 4.9981 26.1062 5.14361L44.8562 23.8936C45.0017 24.0388 45.1172 24.2112 45.196 24.401C45.2747 24.5908 45.3153 24.7943 45.3153 24.9999C45.3153 25.2054 45.2747 25.4089 45.196 25.5987C45.1172 25.7885 45.0017 25.961 44.8562 26.1061L26.1062 44.8561C25.8128 45.1495 25.4149 45.3143 25 45.3143C24.5851 45.3143 24.1871 45.1495 23.8937 44.8561C23.6003 44.5627 23.4355 44.1648 23.4355 43.7499C23.4355 43.3349 23.6003 42.937 23.8937 42.6436L41.5406 24.9999L23.8937 7.35611C23.7482 7.21097 23.6328 7.03855 23.554 6.84872C23.4752 6.65889 23.4347 6.45539 23.4347 6.24986C23.4347 6.04434 23.4752 5.84084 23.554 5.65101C23.6328 5.46118 23.7482 5.28876 23.8937 5.14361Z" fill="#1BA965"/>
</svg>
