<svg width="83" height="86" viewBox="0 0 83 86" fill="none" xmlns="http://www.w3.org/2000/svg">
<path d="M35.0906 49.153C39.9034 54.1258 45.7267 57.9651 52.1517 60.4012L60.8436 53.3564C61.1013 53.1757 61.4068 53.0789 61.7197 53.0789C62.0326 53.0789 62.3381 53.1757 62.5958 53.3564L78.7347 63.947C79.3474 64.3222 79.8661 64.8374 80.2497 65.4518C80.6334 66.0662 80.8715 66.7631 80.9453 67.4873C81.0191 68.2116 80.9265 68.9434 80.6749 69.6249C80.4233 70.3065 80.0196 70.9191 79.4956 71.4145L71.9333 79.0228C70.8503 80.1127 69.5193 80.9125 68.059 81.351C66.5986 81.7894 65.0544 81.8528 63.5642 81.5354C48.6984 78.4083 34.9963 71.0845 24.0239 60.4012C13.295 49.6115 5.87058 35.8827 2.6514 20.8801C2.33338 19.3858 2.39976 17.8331 2.84409 16.3726C3.28842 14.912 4.09563 13.5932 5.18751 12.5438L13.0264 4.84154C13.5115 4.33382 14.1031 3.94445 14.7568 3.70259C15.4106 3.46073 16.1096 3.37264 16.8015 3.44492C17.4935 3.5172 18.1604 3.74798 18.7523 4.11997C19.3443 4.49197 19.8459 4.99554 20.2197 5.59298L30.9636 21.8194C31.1489 22.0742 31.249 22.3829 31.249 22.7C31.249 23.0171 31.1489 23.3258 30.9636 23.5806L23.8856 32.2456C26.3423 38.6586 30.1699 44.4341 35.0906 49.153Z" fill="#0FA958"/>
</svg>
