<svg width="50" height="50" viewBox="0 0 50 50" fill="none" xmlns="http://www.w3.org/2000/svg">
<path fill-rule="evenodd" clip-rule="evenodd" d="M26.1062 5.14361C26.2517 5.28876 26.3672 5.46118 26.446 5.65101C26.5247 5.84084 26.5653 6.04434 26.5653 6.24986C26.5653 6.45539 26.5247 6.65889 26.446 6.84872C26.3672 7.03855 26.2517 7.21097 26.1062 7.35611L8.45936 24.9999L26.1062 42.6436C26.3996 42.937 26.5645 43.3349 26.5645 43.7499C26.5645 44.1648 26.3996 44.5627 26.1062 44.8561C25.8128 45.1495 25.4149 45.3143 25 45.3143C24.5851 45.3143 24.1871 45.1495 23.8937 44.8561L5.14374 26.1061C4.99823 25.961 4.88278 25.7885 4.80401 25.5987C4.72524 25.4089 4.68469 25.2054 4.68469 24.9999C4.68469 24.7943 4.72524 24.5908 4.80401 24.401C4.88278 24.2112 4.99823 24.0388 5.14374 23.8936L23.8937 5.14361C24.0389 4.9981 24.2113 4.88266 24.4011 4.80389C24.591 4.72512 24.7945 4.68457 25 4.68457C25.2055 4.68457 25.409 4.72512 25.5988 4.80389C25.7887 4.88266 25.9611 4.9981 26.1062 5.14361Z" fill="#1BA965"/>
<path fill-rule="evenodd" clip-rule="evenodd" d="M38.6062 5.14361C38.7517 5.28876 38.8672 5.46118 38.946 5.65101C39.0247 5.84084 39.0653 6.04434 39.0653 6.24986C39.0653 6.45539 39.0247 6.65889 38.946 6.84872C38.8672 7.03855 38.7517 7.21097 38.6062 7.35611L20.9594 24.9999L38.6062 42.6436C38.7515 42.7889 38.8667 42.9614 38.9454 43.1512C39.024 43.341 39.0645 43.5444 39.0645 43.7499C39.0645 43.9553 39.024 44.1588 38.9454 44.3486C38.8667 44.5384 38.7515 44.7108 38.6062 44.8561C38.461 45.0014 38.2885 45.1166 38.0987 45.1952C37.9089 45.2739 37.7054 45.3143 37.5 45.3143C37.2945 45.3143 37.0911 45.2739 36.9013 45.1952C36.7115 45.1166 36.539 45.0014 36.3937 44.8561L17.6437 26.1061C17.4982 25.961 17.3828 25.7885 17.304 25.5987C17.2252 25.4089 17.1847 25.2054 17.1847 24.9999C17.1847 24.7943 17.2252 24.5908 17.304 24.401C17.3828 24.2112 17.4982 24.0388 17.6437 23.8936L36.3937 5.14361C36.5389 4.9981 36.7113 4.88266 36.9011 4.80389C37.091 4.72512 37.2945 4.68457 37.5 4.68457C37.7055 4.68457 37.909 4.72512 38.0988 4.80389C38.2887 4.88266 38.4611 4.9981 38.6062 5.14361Z" fill="#1BA965"/>
</svg>
