<svg width="84" height="69" viewBox="0 0 84 69" fill="none" xmlns="http://www.w3.org/2000/svg">
<path d="M12.9185 18.0895C17.829 13.7166 25.2595 11.5 35 11.5H38.5V19.6046L35.686 20.0675C30.891 20.8553 27.5555 22.4049 25.7705 24.679C24.8391 25.9041 24.3109 27.3069 24.2375 28.75H35C35.9283 28.75 36.8185 29.0529 37.4749 29.5921C38.1313 30.1312 38.5 30.8625 38.5 31.625V51.75C38.5 54.9211 35.3605 57.5 31.5 57.5H10.5C9.57175 57.5 8.68151 57.1971 8.02513 56.6579C7.36875 56.1188 7 55.3875 7 54.625V40.25L7.0105 31.8579C6.979 31.5388 6.314 23.9775 12.9185 18.0895ZM70 57.5H49C48.0717 57.5 47.1815 57.1971 46.5251 56.6579C45.8688 56.1188 45.5 55.3875 45.5 54.625V40.25L45.5105 31.8579C45.479 31.5388 44.814 23.9775 51.4185 18.0895C56.329 13.7166 63.7595 11.5 73.5 11.5H77V19.6046L74.186 20.0675C69.391 20.8553 66.0555 22.4049 64.2705 24.679C63.3391 25.9041 62.8109 27.3069 62.7375 28.75H73.5C74.4283 28.75 75.3185 29.0529 75.9749 29.5921C76.6313 30.1312 77 30.8625 77 31.625V51.75C77 54.9211 73.8605 57.5 70 57.5Z" fill="#1BA965"/>
</svg>
